# xmcd CD database file
#
# Track frame offsets:
#	187
#	36110
#	67972
#	84645
#	101287
#	111577
#	131870
#	151730
#	175005
#	193042
#	209977
#
# Disc length: 2994 seconds
#
# Revision: 0
# Processed by: cddbd v1.5PL3 Copyright (c) Steve Scherf et al.
# Submitted via: CDex 1.50beta10
#
DISCID=9a0bb00b
DTITLE=THE MODERN JAZZ QUARTET - BEST ONE
DYEAR=1900
DGENRE=Jazz
TTITLE0=SOFTLY, AS IN A MORNING SUNRISE
TTITLE1=DJANGO
TTITLE2=CONCORDE
TTITLE3=AUTUMN IN NEW YORK
TTITLE4=ROSE OF THE RIO GRANDE
TTITLE5=ALL OF YOU
TTITLE6=MILANO
TTITLE7=I'LL REMEMBER APRIL
TTITLE8=DELAUNAY'S DILEMMA
TTITLE9=BUT NOT FOR ME
TTITLE10=ALL THE THINGS YOU ARE
EXTD=
EXTT0=
EXTT1=
EXTT2=
EXTT3=
EXTT4=
EXTT5=
EXTT6=
EXTT7=
EXTT8=
EXTT9=
EXTT10=
PLAYORDER=
